# xmcd
#
# Track frame offsets:
#	150
#	17325
#	31451
#	50461
#	66612
#	82946
#	99385
#	113471
#	128568
#	144402
#	161164
#	175819
#	192458
#	210824
#	224541
#	240535
#	254792
#
# Disc length: 3627
#
# Revision: 2
# Processed by: cddbd v1.5.1PL0 Copyright (c) Steve Scherf et al.
# Submitted via: CDex 1.30
# Normalized: r1:TDELIM( - )
#
DISCID=e90e2911
DTITLE=CDX - Volume 270 July 2001
DYEAR=2001
DGENRE=Country
TTITLE0=Collin Raye - Ain't Nobody Gonna Take That Away From Me
TTITLE1=Kenny Rogers - (Beautiful) All That You Could Be
TTITLE2=Rick Ferrell - Different Point Of View
TTITLE3=Steve Holy - Good Morning Beautiful
TTITLE4=David Freizzell - I ain't Going If There Ain't No Hank
TTITLE5=Lorie Morgan and Sammy Kershaw - I Finally Found Someone
TTITLE6=Reba McIntire - I'm A Survivor
TTITLE7=B.B. Watson - Momma's Got A Tatoo
TTITLE8=Brian McComas - Night Dissapear With You
TTITLE9=Chad Brock - Tell Me How
TTITLE10=Alison Krauss and Union Station - The Lucky One
TTITLE11=Kenny Chesney - The Tin Man
TTITLE12=Alan Jackson - Where I Come From
TTITLE13=Dale Watson - You're The Best Part Of Me
TTITLE14=Bryan Frasher - Drive On
TTITLE15=Tommy Gilham - NASCAR Disease
TTITLE16=Kristyn Smyth - The Likes Of You
EXTD=\nYEAR: 2001  ID3G:   2
EXTT0=
EXTT1=
EXTT2=
EXTT3=
EXTT4=
EXTT5=
EXTT6=
EXTT7=
EXTT8=
EXTT9=
EXTT10=
EXTT11=
EXTT12=
EXTT13=
EXTT14=
EXTT15=
EXTT16=
PLAYORDER=
